# AST/ASF file generated using VICON BodyLanguage
# -----------------------------------------------
:version 1.10
:name VICON
:units
  mass 1.0
  length 0.45
  angle deg
:documentation
   .ast/.asf automatically generated from VICON data using
   VICON BodyBuilder and BodyLanguage model FoxedUp or BRILLIANT.MOD
:root
   order TX TY TZ RX RY RZ
   axis XYZ
   position 0 0 0  
   orientation 0 0 0 
:bonedata
  begin
     id 1 
     name lhipjoint
     direction 0.645893 -0.654526 0.392961 
     length 2.38111 
     axis 0 0 0  XYZ
  end
  begin
     id 2 
     name lfemur
     direction 0.34202 -0.939693 0  
     length 6.6822  
     axis 0 0 20  XYZ
    dof rx ry rz
    limits (-160.0 20.0)
           (-70.0 70.0)
           (-60.0 70.0)
  end
  begin
     id 3 
     name ltibia
     direction 0.34202 -0.939693 0   
     length 6.93904   
     axis 0 0 20   XYZ
    dof rx
    limits (-10.0 170.0)
  end
  begin
     id 4 
     name lfoot
     direction 0.0694967 -0.190941 0.979138   
     length 2.13616   
     axis -90 7.62852e-016 20   XYZ
    dof rx rz
    limits (-45.0 90.0)
           (-70.0 20.0)
  end
  begin
     id 5 
     name ltoes
     direction 1.535e-011 -4.2202e-011 1   
     length 1.07536   
     axis -90 7.62852e-016 20   XYZ
    dof rx
    limits (-90.0 20.0)
  end
  begin
     id 6 
     name rhipjoint
     direction -0.700219 -0.612087 0.367481   
     length 2.54621  
     axis 0 0 0  XYZ 
  end
  begin
     id 7 
     name rfemur
     direction -0.34202 -0.939693 0   
     length 6.55353   
     axis 0 0 -20   XYZ
    dof rx ry rz
    limits (-160.0 20.0)
           (-70.0 70.0)
           (-70.0 60.0)
  end
  begin
     id 8 
     name rtibia
     direction -0.34202 -0.939693 0   
     length 6.8736   
     axis 0 0 -20   XYZ
    dof rx
    limits (-10.0 170.0)
 end
 begin
     id 9 
     name rfoot
     direction -0.0679995 -0.186827 0.980037   
     length 2.1218  
     axis -90 -7.62852e-016 -20   XYZ
    dof rx rz
    limits (-45.0 90.0)
           (-20.0 70.0)
  end
  begin
     id 10 
     name rtoes
     direction -1.53589e-011 -4.21772e-011 1   
     length 1.06864   
     axis -90 -7.62852e-016 -20   XYZ
    dof rx
    limits (-90.0 20.0)
  end
  begin
     id 11 
     name lowerback
     direction -0.0416607 0.996347 -0.0745409   
     length 2.12205   
     axis 0 0 0   XYZ
    dof rx ry rz
    limits (-20.0 45.0)
           (-30.0 30.0)
           (-30.0 30.0)
  end
  begin
     id 12 
     name upperback
     direction -0.000153993 0.999276 -0.0380568   
     length 2.12759   
     axis 0 0 0   XYZ
    dof rx ry rz
    limits (-20.0 45.0)
           (-30.0 30.0)
           (-30.0 30.0)
  end
  begin
     id 13 
     name thorax
     direction 0.0187671 0.999821 -0.00241421   
     length 2.13704   
     axis 0 0 0   XYZ
    dof rx ry rz
    limits (-20.0 45.0)
           (-30.0 30.0)
           (-30.0 30.0)
  end
  begin
     id 14 
     name lowerneck
     direction 0.0268157 0.964865 0.261374   
     length 1.65253   
     axis 0 0 0   XYZ
    dof rx ry rz
    limits (-20.0 45.0)
           (-30.0 30.0)
           (-30.0 30.0)
  end
  begin
     id 15 
     name upperneck
     direction 0.00263774 0.939908 -0.341418   
     length 1.72375   
     axis 0 0 0   XYZ
    dof rx ry rz
    limits (-20.0 45.0)
           (-30.0 30.0)
           (-30.0 30.0)
  end
  begin
     id 16
     name head
     direction -0.00526001 0.989001 -0.147818  
     length 1.74878  
     axis 0 0 0   XYZ
    dof rx ry rz
    limits (-20.0 45.0)
           (-30.0 30.0)
           (-30.0 30.0)
  end
  begin
     id 17 
     name lclavicle
     direction 0.881214 0.461162 -0.103884  
     length 3.25108  
     axis 0 0 0   XYZ
    dof ry rz
    limits (-20.0 10.0)
           (0.0 20.0)
  end
  begin
     id 18 
     name lhumerus
     direction 1 -4.4899e-011 3.38092e-027   
     length 4.87408   
     axis 180 -30 -90   XYZ
    dof rx ry rz
    limits (-60.0 90.0)
           (-90.0 90.0)
           (-90.0 90.0)
  end
  begin
     id 19
     name lradius
     direction 1 -4.48931e-011 9.96288e-027   
     length 2.76729   
     axis 180 -30 -90   XYZ
    dof rx
    limits (-10.0 170.0)
  end
  begin
     id 20
     name lwrist
     direction 1 -4.4896e-011 1.50617e-026   
     length 1.38364   
     axis -9.31234e-015 90 90   XYZ
    dof ry
    limits (-180.0 0.0)
 end
  begin
     id 21 
     name lhand
     direction 1 -4.49038e-011 3.01286e-026   
     length 0.98922   
     axis -1.92217e-014 90 90   XYZ
    dof rx rz
    limits (-90.0 90.0)
           (-45.0 45.0)
  end
  begin
     id 22 
     name lfingers
     direction 1 -4.49051e-011 6.02588e-026   
     length 0.797535   
     axis -3.84436e-014 90 90   XYZ
    dof rx
    limits (0.0 90.0)
  end
  begin
     id 23
     name lthumb
     direction 0.707107 -6.34901e-011 0.707107   
     length 1.14511   
     axis -90 45 2.19363e-014   XYZ
    dof rx rz
    limits (-45.0 45.0)
           (-45.0 45.0)
  end
  begin
     id 24 
     name rclavicle
     direction -0.893894 0.441652 -0.0767889   
     length 3.29361  
     axis 0 0 0   XYZ 
    dof ry rz
    limits (-10.0 20.0)
           (-20.0 0.0)
  end
  begin
     id 25 
     name rhumerus
     direction -1 -4.48945e-011 8.0491e-028  
     length 4.71404   
     axis 180 30 90   XYZ
    dof rx ry rz
    limits (-90.0 60.0)
           (-90.0 90.0)
           (-90.0 90.0)
  end
  begin
     id 26 
     name rradius
     direction -1 -4.48986e-011 9.27795e-027   
     length 2.83468   
     axis 180 30 90   XYZ
    dof rx
    limits (-10.0 170.0)
  end
  begin
     id 27 
     name rwrist
     direction -1 -4.49029e-011 1.5064e-026   
     length 1.41734   
     axis -9.31234e-015 -90 -90   XYZ
    dof ry
    limits (-180.0 0.0)
  end
  begin
     id 28
     name rhand
     direction -1 -4.48857e-011 3.01165e-026   
     length 0.868195   
     axis -1.92217e-014 -90 -90   XYZ
    dof rx rz
    limits (-90.0 90.0)
           (-45.0 45.0)
  end
  begin
     id 29
     name rfingers
     direction -1 -4.49048e-011 6.02585e-026   
     length 0.699961   
     axis -3.84436e-014 -90 -90   XYZ
    dof rx
    limits (0.0 90.0)
  end
  begin
     id 30
     name rthumb
     direction -0.707107 -6.34854e-011 0.707107   
     length 1.00501   
     axis -90 -45 -2.19363e-014   XYZ
    dof rx rz
    limits (-45.0 45.0)
           (-45.0 45.0)
  end
:hierarchy
  begin
    root lhipjoint rhipjoint lowerback
    lhipjoint lfemur
    lfemur ltibia
    ltibia lfoot
    lfoot ltoes
    rhipjoint rfemur
    rfemur rtibia
    rtibia rfoot
    rfoot rtoes
    lowerback upperback
    upperback thorax
    thorax lowerneck lclavicle rclavicle
    lowerneck upperneck
    upperneck head
    lclavicle lhumerus
    lhumerus lradius
    lradius lwrist
    lwrist lhand lthumb
    lhand lfingers
    rclavicle rhumerus
    rhumerus rradius
    rradius rwrist
    rwrist rhand rthumb
    rhand rfingers
  end

#!OML:ASF H:\ManfredObstacles\Project 1\Capture day 2\Session 1\male.ASF
:FULLY-SPECIFIED
:DEGREES
33
root 1.73501 14.9042 24.6503 -174.824 6.8236 181.981
lowerback 3.54452 0.436628 -0.754922
upperback 3.72584 0.77236 -0.877199
thorax 1.84021 0.463272 -0.488497
lowerneck -28.7422 0.217789 4.1494
upperneck 42.6299 3.29243 -2.04922
head 23.6286 2.77293 -0.507421
rclavicle 6.95746e-015 1.90833e-014
rhumerus -44.425 8.18106 -90.0809
rradius 72.1967
rwrist 12.2072
rhand -12.5648 -0.77015
rfingers 7.12502
rthumb 13.5126 -30.3117
lclavicle 6.95746e-015 1.90833e-014
lhumerus -53.1334 -18.2634 87.946
lradius 79.2759
lwrist -21.5728
lhand -17.6933 5.91314
lfingers 7.12502
lthumb 8.56629 35.7194
rfemur -16.7355 6.2563 27.3802
rtibia 43.8339
rfoot -23.6035 -24.7035
rtoes -13.0839
lfemur -42.0005 -1.86467 -17.5963
ltibia 77.351
lfoot 5.70396 28.6377
ltoes -6.95556
34
root 1.73862 14.9236 24.4476 -174.535 6.55755 181.939
lowerback 3.55993 0.687178 -0.74946
upperback 3.69355 1.10636 -0.907148
thorax 1.80021 0.630831 -0.529081
lowerneck -28.8881 -0.0720331 3.82908
upperneck 42.647 2.88419 -1.82894
head 23.6523 2.6054 -0.435345
rclavicle -8.15017e-015 -8.74653e-015
rhumerus -43.1647 8.82599 -90.4004
rradius 72.4733
rwrist 12.0941
rhand -12.4544 -0.769878
rfingers 7.12502
rthumb 13.6191 -30.3044
lclavicle -8.15017e-015 -8.74653e-015
lhumerus -53.852 -18.3768 87.6898
lradius 79.462
lwrist -21.4745
lhand -17.5521 5.58706
lfingers 7.12502
lthumb 8.70259 35.3877
rfemur -15.6994 6.54634 27.3704
rtibia 42.9973
rfoot -23.7937 -25.1785
rtoes -13.1975
lfemur -43.224 -2.03457 -17.4536
ltibia 75.3234
lfoot 5.51957 29.026
ltoes -7.18688
35
root 1.73973 14.9438 24.2438 -174.243 6.28231 181.969
lowerback 3.604 0.95354 -0.639049
upperback 3.62749 1.46003 -0.932586
thorax 1.71229 0.809414 -0.625578
lowerneck -28.9271 -0.404295 3.48447
upperneck 42.6631 2.42025 -1.57301
head 23.6339 2.42424 -0.353862
rclavicle -2.44505e-014 9.54166e-015
rhumerus -41.9998 9.44337 -90.6627
rradius 72.7806
rwrist 11.9216
rhand -12.3375 -0.813828
rfingers 7.12502
rthumb 13.7318 -30.3407
lclavicle -2.44505e-014 9.54166e-015
lhumerus -54.6456 -18.5509 87.4402
lradius 79.6682
lwrist -21.4327
lhand -17.424 5.30959
lfingers 7.12502
lthumb 8.82619 35.105
rfemur -14.6128 6.75347 27.4344
rtibia 42.0495
rfoot -23.7965 -25.6003
rtoes -13.4774
lfemur -44.3482 -2.15843 -17.2595
ltibia 73.2099
lfoot 5.36038 29.3384
ltoes -7.39486
36
root 1.73836 14.964 24.0394 -173.949 6.00997 182.069
lowerback 3.66894 1.21475 -0.449852
upperback 3.56766 1.80806 -0.925357
thorax 1.62211 0.986229 -0.733764
lowerneck -28.9909 -0.711346 3.15012
upperneck 42.641 1.9921 -1.35423
head 23.6004 2.24694 -0.287051
rclavicle -5.06901e-015 -1.74931e-014
rhumerus -40.8295 10.117 -90.8198
rradius 73.0921
rwrist 11.748
rhand -12.1981 -0.858978
rfingers 7.12502
rthumb 13.8661 -30.3767
lclavicle -5.06901e-015 -1.74931e-014
lhumerus -55.431 -18.6852 87.1962
lradius 79.8799
lwrist -21.4146
lhand -17.3169 5.09851
lfingers 7.12502
lthumb 8.92959 34.8895
rfemur -13.4826 6.86061 27.5665
rtibia 41.0064
rfoot -23.6439 -25.9498
rtoes -13.8847
lfemur -45.3914 -2.24048 -17.0186
ltibia 71.0586
lfoot 5.21321 29.5848
ltoes -7.57035
37
root 1.73472 14.9824 23.8345 -173.643 5.75121 182.231
lowerback 3.78049 1.55856 -0.0864814
upperback 3.47667 2.27093 -1.01044
thorax 1.4882 1.2248 -1.03948
lowerneck -29.1117 -1.07528 2.96634
upperneck 42.622 1.36712 -1.12998
head 23.5898 2.02932 -0.300957
rclavicle 3.02153e-014 9.93923e-015
rhumerus -39.7129 10.4525 -90.9596
rradius 73.4036
rwrist 11.6973
rhand -12.0224 -0.85244
rfingers 7.12502
rthumb 14.0354 -30.3586
lclavicle 3.02153e-014 9.93923e-015
lhumerus -56.2212 -19.1665 86.8729
lradius 80.0984
lwrist -21.3692
lhand -17.2414 4.95702
lfingers 7.12502
lthumb 9.00245 34.7449
rfemur -12.3332 6.86477 27.7574
rtibia 39.897
rfoot -23.3808 -26.2158
rtoes -14.3965
lfemur -46.3744 -2.28278 -16.736
ltibia 68.9189
lfoot 5.09717 29.7667
ltoes -7.69274
38
root 1.72919 14.9985 23.6292 -173.33 5.52074 182.436
lowerback 3.89305 1.90456 0.319388
upperback 3.39643 2.73934 -1.07902
thorax 1.37371 1.46629 -1.3535
lowerneck -29.3288 2.41905 0.645705
upperneck 42.5438 -1.30951 1.18966
head 23.5989 -1.33083 -0.330486
rclavicle 2.54444e-014 3.57812e-015
rhumerus -38.557 10.8368 -91.0083
rradius 73.6922
rwrist 11.5947
rhand -11.8451 -0.798559
rfingers 7.12502
rthumb 14.2062 -30.2928
lclavicle 2.54444e-014 3.57812e-015
lhumerus -56.982 -19.6114 86.5281
lradius 80.329
lwrist -21.3348
lhand -17.1858 4.86653
lfingers 7.12502
lthumb 9.05608 34.6521
rfemur -11.1781 6.76773 27.9805
rtibia 38.7451
rfoot -23.0385 -26.3958
rtoes -14.9955
lfemur -47.3001 -2.28078 -16.435
ltibia 66.8311
lfoot 5.00431 29.8705
ltoes -7.77133
39
root 1.72242 15.0124 23.4234 -173.008 5.32758 182.653
lowerback 4.01538 2.24342 0.728265
upperback 3.3158 3.19945 -1.14001
thorax 1.26092 1.70286 -1.66297
lowerneck -29.5756 2.04314 0.533016
upperneck 42.4308 -1.8153 1.28866
head 23.599 -1.48126 -0.384665
rclavicle -5.06901e-014 4.25399e-014
rhumerus -37.36 11.2953 -90.9893
rradius 73.9481
rwrist 11.476
rhand -11.7167 -0.737341
rfingers 7.12502
rthumb 14.33 -30.2228
lclavicle -5.06901e-014 4.25399e-014
lhumerus -57.7274 -19.9824 86.1526
lradius 80.5715
lwrist -21.2671
lhand -17.145 4.84151
lfingers 7.12502
lthumb 9.09547 34.6254
rfemur -10.0353 6.58287 28.2005
rtibia 37.582
rfoot -22.6944 -26.4609
rtoes -15.6013
lfemur -48.1761 -2.23417 -16.1488
ltibia 64.8239
lfoot 4.9443 29.8708
ltoes -7.84866
40
root 1.71509 15.0242 23.2169 -172.682 5.18371 182.854
lowerback 4.11828 2.58426 1.09842
upperback 3.24933 3.6634 -1.20225
thorax 1.17921 1.94069 -1.9519
lowerneck -29.8793 1.66374 0.386855
upperneck 42.3173 -2.30803 1.40054
head 23.623 -1.62928 -0.422574
rclavicle -4.96962e-015 0
rhumerus -36.1002 11.8113 -90.8982
rradius 74.1521
rwrist 11.3488
rhand -11.6266 -0.678049
rfingers 7.12502
rthumb 14.4168 -30.1573
lclavicle -4.96962e-015 0
lhumerus -58.4423 -20.2907 85.7467
lradius 80.8369
lwrist -21.1295
lhand -17.1036 4.85794
lfingers 7.12502
lthumb 9.13534 34.6401
rfemur -8.91644 6.33889 28.3853
rtibia 36.4312
rfoot -22.3366 -26.4486
rtoes -16.2531
lfemur -48.9977 -2.13906 -15.9087
ltibia 62.9158
lfoot 4.91238 29.7643
ltoes -7.92079
41
root 1.70771 15.0344 23.0091 -172.351 5.09323 183.015
lowerback 4.1791 2.87687 1.34738
upperback 3.18843 4.05834 -1.20963
thorax 1.11779 2.14044 -2.11348
lowerneck -30.1607 1.33393 0.145349
upperneck 42.1985 -2.64789 1.49235
head 23.6334 -1.74572 -0.411264
rclavicle -1.20265e-014 2.66371e-014
rhumerus -34.8118 12.5907 -90.7118
rradius 74.3089
rwrist 11.2364
rhand -11.58 -0.639814
rfingers 7.12502
rthumb 14.4617 -30.1159
lclavicle -1.20265e-014 2.66371e-014
lhumerus -59.1907 -20.3004 85.359
lradius 81.1312
lwrist -20.9299
lhand -17.022 4.92503
lfingers 7.12502
lthumb 9.21414 34.7037
rfemur -7.8299 6.07225 28.5119
rtibia 35.3154
rfoot -21.9785 -26.3744
rtoes -16.8928
lfemur -49.7592 -1.99617 -15.7425
ltibia 61.1177
lfoot 4.9037 29.5576
ltoes -8.01971
42
root 1.7009 15.0427 22.8 -172.028 5.05891 183.136
lowerback 4.21474 3.17833 1.524
upperback 3.149 4.46502 -1.23058
thorax 1.09227 2.346 -2.24681
lowerneck -30.4675 0.989904 -0.145593
upperneck 42.0901 -3.00781 1.62771
head 23.669 -1.87216 -0.373714
rclavicle 7.18607e-014 -1.03368e-014
rhumerus -33.4605 13.3638 -90.4572
rradius 74.3952
rwrist 11.3092
rhand -11.5431 -0.608233
rfingers 7.12502
rthumb 14.4973 -30.0818
lclavicle 7.18607e-014 -1.03368e-014
lhumerus -59.8928 -20.2634 84.9372
lradius 81.4436
lwrist -20.6268
lhand -16.9109 5.0446
lfingers 7.12502
lthumb 9.32134 34.8185
rfemur -6.76754 5.8081 28.5836
rtibia 34.2456
rfoot -21.6088 -26.2567
rtoes -17.5253
lfemur -50.4484 -1.79332 -15.6562
ltibia 59.438
lfoot 4.92515 29.281
ltoes -8.17325
43
root 1.69503 15.0486 22.5895 -171.711 5.06691 183.222
lowerback 4.24139 3.5013 1.64282
upperback 3.08364 4.89729 -1.2839
thorax 1.04737 2.5626 -2.38222
lowerneck -30.6469 0.628207 -0.502851
upperneck 42.015 -3.44964 1.875
head 23.7006 -2.03304 -0.287914
rclavicle -7.37491e-014 1.35174e-014
rhumerus -32.1732 14.0578 -90.1815
rradius 74.4555
rwrist 11.5462
rhand -11.4884 -0.587343
rfingers 7.12502
rthumb 14.55 -30.0571
lclavicle -7.37491e-014 1.35174e-014
lhumerus -60.6319 -20.2476 84.4815
lradius 81.771
lwrist -20.2621
lhand -16.776 5.14675
lfingers 7.12502
lthumb 9.4515 34.9148
rfemur -5.72814 5.5685 28.612
rtibia 33.227
rfoot -21.2158 -26.1276
rtoes -18.1756
lfemur -51.0731 -1.53723 -15.6491
ltibia 57.8897
lfoot 4.98871 29.0029
ltoes -8.31278
44
root 1.69049 15.0518 22.3777 -171.405 5.11173 183.282
lowerback 4.26061 3.84159 1.70913
upperback 3.02127 5.35202 -1.36347
thorax 1.01141 2.79023 -2.51519
lowerneck -30.8243 0.28172 -0.781095
upperneck 41.9442 -3.90396 2.09548
head 23.7387 -2.1881 -0.236888
rclavicle 3.62782e-014 -7.15625e-015
rhumerus -30.8962 14.6447 -89.8607
rradius 74.4885
rwrist 11.9794
rhand -11.3347 -0.519484
rfingers 7.12502
rthumb 14.698 -29.9785
lclavicle 3.62782e-014 -7.15625e-015
lhumerus -61.3327 -20.2473 83.9745
lradius 82.0826
lwrist -19.8973
lhand -16.6379 5.18651
lfingers 7.12502
lthumb 9.58475 34.9485
rfemur -4.69912 5.36698 28.6132
rtibia 32.257
rfoot -20.7908 -26.0092
rtoes -18.8541
lfemur -51.629 -1.20987 -15.722
ltibia 56.4854
lfoot 5.11549 28.7707
ltoes -8.46443
45
root 1.68724 15.0518 22.1643 -171.107 5.18663 183.331
lowerback 4.24836 4.12799 1.6705
upperback 3.01191 5.7335 -1.38181
thorax 1.02873 2.9809 -2.52074
lowerneck -31.1374 -0.046886 -1.21481
upperneck 41.92 -4.25271 2.34461
head 23.8803 -2.32858 -0.113336
rclavicle -6.09275e-014 1.19271e-015
rhumerus -29.5392 15.4193 -89.4207
rradius 74.5074
rwrist 12.5143
rhand -11.0949 -0.446499
rfingers 7.12502
rthumb 14.9291 -29.8885
lclavicle -6.09275e-014 1.19271e-015
lhumerus -61.9275 -19.9661 83.4462
lradius 82.3526
lwrist -19.6062
lhand -16.525 5.16221
lfingers 7.12502
lthumb 9.69361 34.9192
rfemur -3.67861 5.21508 28.6069
rtibia 31.3333
rfoot -20.3454 -25.9044
rtoes -19.5287
lfemur -52.1277 -0.809967 -15.8619
ltibia 55.2402
lfoot 5.30088 28.6446
ltoes -8.56276
46
root 1.68511 15.0487 21.949 -170.82 5.28138 183.379
lowerback 4.23095 4.44546 1.6268
upperback 2.99481 6.15707 -1.4481
thorax 1.04807 3.19328 -2.57289
lowerneck -31.4454 -0.380929 -1.55408
upperneck 41.8959 -4.67352 2.59641
head 24.0277 -2.47666 -0.0279735
rclavicle 3.3197e-014 3.18055e-015
rhumerus -28.2517 15.9873 -88.9906
rradius 74.5653
rwrist 13.0283
rhand -10.7999 -0.335325
rfingers 7.12502
rthumb 15.2133 -29.756
lclavicle 3.3197e-014 3.18055e-015
lhumerus -62.4777 -19.7996 82.8449
lradius 82.5976
lwrist -19.4068
lhand -16.4378 5.07201
lfingers 7.12502
lthumb 9.77782 34.825
rfemur -2.66191 5.10865 28.6058
rtibia 30.4503
rfoot -19.8498 -25.833
rtoes -20.2387
lfemur -52.5679 -0.336198 -16.064
ltibia 54.1604
lfoot 5.56741 28.6608
ltoes -8.60056
